<?xml version="1.0" standalone="no"?><!DOCTYPE svg PUBLIC "-//W3C//DTD SVG 1.1//EN" "http://www.w3.org/Graphics/SVG/1.1/DTD/svg11.dtd"><svg t="1723387715688" class="icon" viewBox="0 0 1024 1024" version="1.1" xmlns="http://www.w3.org/2000/svg" p-id="13136" xmlns:xlink="http://www.w3.org/1999/xlink" width="200" height="200"><path d="M822.8 200.6c-33.2-33.2-71.2-60.7-113-81.7-17.5-8.8-35.5-16.4-53.9-22.8V367h271.6c-6.4-18.3-14-36.2-22.8-53.6-21.1-41.7-48.6-79.7-81.9-112.8z" fill="#FF9800" p-id="13137"></path><path d="M584 48.3V403c0 19.9 16.1 36 36 36h355.4c23.2 0 40.3-21.6 35.1-44.2-44.2-189-193.2-337.6-382.3-381.6C605.6 8 584 25.1 584 48.3z m72 47.8c18.4 6.4 36.4 14 53.9 22.8 41.7 21.1 79.8 48.5 113 81.7s60.8 71.1 81.9 112.8c8.8 17.4 16.4 35.3 22.8 53.6H656V96.1z" fill="#FF5722" p-id="13138"></path><path d="M440 512V114.4c-29.2 5.2-57.7 13.7-85.2 25.4-48.1 20.3-91.3 49.5-128.4 86.6s-66.3 80.3-86.6 128.4C118.7 404.5 108 457.4 108 512s10.7 107.5 31.7 157.2c20.3 48.1 49.5 91.3 86.6 128.4s80.3 66.3 128.4 86.6c49.8 21 102.7 31.7 157.2 31.7s107.5-10.7 157.2-31.7c48.1-20.3 91.3-49.5 128.4-86.6 37.1-37.1 66.3-80.3 86.6-128.4 11.6-27.5 20.1-56 25.4-85.2H440v-72z" fill="#F9CE1D" p-id="13139"></path><path d="M512 512V73.5c0-21-17.9-37.6-38.8-35.9C228.4 57.3 36 262.2 36 512c0 262.9 213.1 476 476 476 249.8 0 454.7-192.4 474.4-437.2 1.7-20.9-14.9-38.8-35.9-38.8H512z m372.3 157.2c-20.3 48.1-49.5 91.3-86.6 128.4s-80.3 66.3-128.4 86.6C619.5 905.3 566.6 916 512 916s-107.5-10.7-157.2-31.7c-48.1-20.3-91.3-49.5-128.4-86.6s-66.3-80.3-86.6-128.4C118.7 619.5 108 566.6 108 512s10.7-107.5 31.7-157.2c20.3-48.1 49.5-91.3 86.6-128.4s80.3-66.3 128.4-86.6c27.5-11.6 56-20.1 85.2-25.4V584h469.6c-5.1 29.2-13.6 57.7-25.2 85.2z" fill="#FF9800" p-id="13140"></path></svg>