<?xml version="1.0" standalone="no"?><!DOCTYPE svg PUBLIC "-//W3C//DTD SVG 1.1//EN" "http://www.w3.org/Graphics/SVG/1.1/DTD/svg11.dtd"><svg t="1723351925900" class="icon" viewBox="0 0 1024 1024" version="1.1" xmlns="http://www.w3.org/2000/svg" p-id="5109" xmlns:xlink="http://www.w3.org/1999/xlink" width="200" height="200"><path d="M1000 800c13.2 0 24 10.8 24 24v48c0 13.2-10.8 24-24 24H24c-13.2 0-24-10.8-24-24V152c0-13.2 10.8-24 24-24h48c13.2 0 24 10.8 24 24v648h904z m-712-120v-144c0-13.2-10.8-24-24-24h-48c-13.2 0-24 10.8-24 24v144c0 13.2 10.8 24 24 24h48c13.2 0 24-10.8 24-24z m192 0V280c0-13.2-10.8-24-24-24h-48c-13.2 0-24 10.8-24 24v400c0 13.2 10.8 24 24 24h48c13.2 0 24-10.8 24-24z m192 0V408c0-13.2-10.8-24-24-24h-48c-13.2 0-24 10.8-24 24v272c0 13.2 10.8 24 24 24h48c13.2 0 24-10.8 24-24z m192 0V216c0-13.2-10.8-24-24-24h-48c-13.2 0-24 10.8-24 24v464c0 13.2 10.8 24 24 24h48c13.2 0 24-10.8 24-24z" fill="" p-id="5110"></path></svg>