<?xml version="1.0" standalone="no"?><!DOCTYPE svg PUBLIC "-//W3C//DTD SVG 1.1//EN" "http://www.w3.org/Graphics/SVG/1.1/DTD/svg11.dtd"><svg t="1723387551240" class="icon" viewBox="0 0 1024 1024" version="1.1" xmlns="http://www.w3.org/2000/svg" p-id="9938" xmlns:xlink="http://www.w3.org/1999/xlink" width="200" height="200"><path d="M896.078128 896.078128H128.130214V127.921872h767.947914z" fill="#FFA726" p-id="9939"></path><path d="M314.387792 479.186165l83.545067 83.545066 370.431739-315.012818 24.792676 29.376195-383.973958 326.263276-13.542217 11.4588-12.292167-12.500509-96.045575-95.837233z" fill="#FF6D00" p-id="9940"></path><path d="M760.447609 820.033367c-32.084639 0-58.752391-25.834385-58.75239-58.127365 0-32.292981 26.45941-58.127365 58.75239-58.127365 32.084639 0 58.752391 25.834385 58.752391 58.127365 0 32.501322-26.45941 58.127365-58.752391 58.127365z" fill="#FFE0B2" p-id="9941"></path><path d="M511.687487 820.033367c-32.084639 0-58.752391-25.834385-58.75239-58.127365 0-32.292981 26.45941-58.127365 58.75239-58.127365 32.084639 0 58.752391 25.834385 58.752391 58.127365 0 32.501322-26.667752 58.127365-58.752391 58.127365z" fill="#AB47BC" p-id="9942"></path><path d="M262.719023 820.033367c-32.084639 0-58.752391-25.834385-58.75239-58.127365 0-32.292981 26.45941-58.127365 58.75239-58.127365 32.084639 0 58.752391 25.834385 58.752391 58.127365 0 32.501322-26.45941 58.127365-58.752391 58.127365z" fill="#FFE0B2" p-id="9943"></path></svg>