<?xml version="1.0" standalone="no"?><!DOCTYPE svg PUBLIC "-//W3C//DTD SVG 1.1//EN" "http://www.w3.org/Graphics/SVG/1.1/DTD/svg11.dtd"><svg t="1723378849664" class="icon" viewBox="0 0 1024 1024" version="1.1" xmlns="http://www.w3.org/2000/svg" p-id="9784" xmlns:xlink="http://www.w3.org/1999/xlink" width="200" height="200"><path d="M815.34 173.34h-38.9v-55.67c0-30.75-24.92-55.67-55.67-55.67s-55.67 24.92-55.67 55.67v55.67H358.91v-55.67c0-30.75-24.92-55.67-55.67-55.67s-55.67 24.92-55.67 55.67v55.67h-38.9c-47.69 0-86.36 38.67-86.36 86.36v615.94c0 47.7 38.67 86.36 86.36 86.36h606.67c47.69 0 86.36-38.66 86.36-86.36V259.7c-0.01-47.69-38.67-86.36-86.36-86.36zM421.21 825.23H260.14c-15.54 0-28.13-12.59-28.13-28.12 0-15.54 12.59-28.13 28.13-28.13h161.07c15.53 0 28.12 12.59 28.12 28.13 0 15.53-12.59 28.12-28.12 28.12zM232.01 677.1c0-15.53 12.59-28.13 28.13-28.13h158.91c15.53 0 28.13 12.6 28.13 28.13s-12.6 28.12-28.13 28.12H260.14c-15.54 0-28.13-12.59-28.13-28.12z m189.2-91.88H260.14c-15.54 0-28.13-12.6-28.13-28.13s12.59-28.12 28.13-28.12h161.07c15.53 0 28.12 12.59 28.12 28.12 0 15.53-12.59 28.13-28.12 28.13z m253.22 198.34c0 26.29-21.31 47.59-47.59 47.59-26.28 0-47.59-21.3-47.59-47.59v-11.9h95.18v11.9z m59.5-23.79H519.77c-13.14 0-23.8-10.66-23.8-23.8s10.66-23.79 23.8-23.79v-83.29c0-59.14 47.94-107.08 107.08-107.08s107.08 47.94 107.08 107.08v83.29c13.14 0 23.79 10.65 23.79 23.79s-10.65 23.8-23.79 23.8z m15.89-294.56H260.14c-15.54 0-28.13-12.59-28.13-28.13 0-15.53 12.59-28.12 28.13-28.12h489.68c15.53 0 28.13 12.59 28.13 28.12 0 15.54-12.6 28.13-28.13 28.13z" p-id="9785"></path></svg>